<svg xmlns="http://www.w3.org/2000/svg" width="24" height="24" viewBox="0 0 24 24">
    <path fill="#666" fill-rule="nonzero" d="M12.296 18.325a6.325 6.325 0 1 0 0-12.65 6.325 6.325 0 0 0 0 12.65zm0-1.4a4.924 4.924 0 1 1 0-9.85 4.925 4.925 0 1 1 0 9.85zm-3.494-.463l-1.596 2.66a1.953 1.953 0 0 0-.026 1.962c.348.613.996.991 1.698.991h6.833a1.95 1.95 0 0 0 1.672-2.955l-1.592-2.655a.7.7 0 1 0-1.2.72l1.592 2.657a.55.55 0 0 1-.471.833H8.877a.552.552 0 0 1-.472-.833l1.597-2.66a.7.7 0 0 0-1.2-.72zm2.794-10.087v11.25a.7.7 0 0 0 1.4 0V6.375a.7.7 0 0 0-1.4 0zm5.765 8.168l-9.354-6.25a.7.7 0 0 0-.778 1.164l9.354 6.25a.7.7 0 1 0 .778-1.164zm-9.354 1.164l9.355-6.25a.7.7 0 0 0-.778-1.164l-9.354 6.25a.7.7 0 1 0 .777 1.164zm4.29-8.632a2.575 2.575 0 1 0-.001-5.15 2.575 2.575 0 0 0 0 5.15zm0-1.4a1.175 1.175 0 1 1-.002-2.35 1.175 1.175 0 0 1 .001 2.35zm6.468 5.106a2.575 2.575 0 1 0 0-5.15 2.575 2.575 0 0 0 0 5.15zm0-1.4a1.175 1.175 0 1 1 0-2.35 1.175 1.175 0 0 1 0 2.35zm.076 8.856a2.575 2.575 0 1 0 0-5.15 2.575 2.575 0 0 0 0 5.15zm0-1.4a1.175 1.175 0 1 1 0-2.35 1.175 1.175 0 0 1 0 2.35zM5.826 10.78a2.575 2.575 0 1 0 0-5.15 2.575 2.575 0 0 0 0 5.15zm0-1.4a1.175 1.175 0 1 1 0-2.35 1.175 1.175 0 0 1 0 2.35zm-.076 8.856a2.575 2.575 0 1 0 0-5.15 2.575 2.575 0 0 0 0 5.15zm0-1.4a1.175 1.175 0 1 1 0-2.35 1.175 1.175 0 0 1 0 2.35z"/>
</svg>
